<?xml version="1.0" standalone="no"?>
<!DOCTYPE svg PUBLIC "-//W3C//DTD SVG 20010904//EN"
 "http://www.w3.org/TR/2001/REC-SVG-20010904/DTD/svg10.dtd">
<svg version="1.0" xmlns="http://www.w3.org/2000/svg"
 width="512.000000pt" height="512.000000pt" viewBox="0 0 512.000000 512.000000"
 preserveAspectRatio="xMidYMid meet">

<g transform="translate(0.000000,512.000000) scale(0.100000,-0.100000)"
fill="#000000" stroke="none">
<path d="M1325 5030 c-145 -23 -262 -75 -406 -181 -51 -38 -99 -69 -105 -69
-6 0 -42 -16 -81 -35 -163 -82 -273 -258 -273 -439 0 -101 20 -166 99 -325
l70 -139 -39 -7 c-54 -9 -124 -56 -157 -106 -25 -38 -28 -51 -28 -130 0 -81 2
-90 30 -130 39 -56 107 -98 171 -105 l50 -6 19 -67 c49 -174 167 -334 323
-436 l42 -28 0 -107 0 -107 -367 -152 c-203 -84 -392 -169 -421 -188 -63 -43
-103 -91 -140 -170 l-27 -58 -3 -598 -3 -597 25 -25 25 -25 296 0 295 0 0
-335 0 -336 25 -24 24 -25 1791 0 1791 0 24 25 25 24 0 336 0 335 295 0 296 0
24 25 25 24 0 573 c0 599 -2 624 -45 708 -30 58 -72 105 -127 143 -29 19 -218
104 -420 188 l-368 153 0 106 0 107 43 28 c155 102 273 262 322 436 l19 67 50
6 c114 13 198 105 204 225 3 57 0 73 -25 121 -33 63 -99 114 -163 125 -22 4
-40 8 -40 10 0 2 21 52 46 112 57 131 72 185 80 283 13 173 -62 368 -191 495
-78 77 -140 113 -355 208 -172 75 -247 92 -395 91 -198 -3 -333 -51 -516 -185
-51 -38 -99 -69 -105 -69 -36 0 -156 -75 -211 -133 -105 -109 -150 -229 -140
-377 3 -47 9 -95 13 -108 6 -21 4 -22 -22 -15 -41 10 -241 7 -292 -5 l-43 -10
8 37 c13 59 7 201 -12 271 -40 154 -156 311 -286 388 -88 52 -357 168 -432
186 -85 21 -232 28 -312 16z m285 -175 c93 -24 367 -153 425 -200 135 -111
203 -282 176 -445 -20 -122 -32 -141 -137 -217 -103 -74 -105 -75 -215 -127
-210 -99 -323 -342 -264 -569 8 -31 46 -120 85 -197 l70 -140 -51 0 c-82 0
-129 -19 -184 -75 -102 -101 -102 -229 0 -330 58 -59 102 -75 199 -75 51 0 66
-3 66 -14 0 -34 65 -190 104 -252 51 -78 148 -179 223 -231 l53 -36 0 -103 0
-103 -52 -15 c-29 -8 -282 -78 -563 -156 -280 -77 -530 -148 -555 -156 -160
-56 -270 -215 -270 -390 l0 -64 -240 0 -241 0 3 527 c3 524 3 528 25 570 12
22 39 54 58 71 22 18 191 94 441 197 262 109 410 176 420 189 11 16 14 60 14
201 0 208 1 206 -88 256 -31 18 -89 65 -128 104 -87 88 -147 200 -170 320 -21
108 -40 125 -135 125 -61 0 -73 3 -94 25 -33 32 -33 78 0 110 21 22 33 25 95
25 62 0 74 3 95 25 21 20 25 34 25 87 0 59 -5 74 -87 242 l-88 180 0 90 c0 85
2 96 34 154 41 75 86 116 161 149 100 44 114 52 210 123 99 73 206 122 302
140 70 12 200 5 278 -15z m2240 0 c93 -24 367 -153 425 -200 99 -81 155 -180
177 -312 16 -95 -2 -183 -72 -346 -53 -122 -60 -147 -60 -203 0 -56 4 -68 25
-89 21 -22 33 -25 95 -25 62 0 74 -3 95 -25 33 -32 33 -78 0 -110 -21 -22 -33
-25 -94 -25 -95 0 -114 -17 -135 -125 -23 -120 -83 -232 -170 -320 -39 -40
-97 -87 -129 -105 -88 -49 -87 -47 -87 -256 0 -159 2 -184 18 -202 10 -12 187
-92 419 -188 248 -103 415 -178 438 -196 19 -17 46 -49 58 -71 22 -42 22 -46
25 -569 l3 -528 -241 0 -240 0 0 64 c0 156 -89 303 -227 375 -12 6 -282 83
-600 171 -318 89 -586 163 -595 166 -16 5 -18 19 -18 108 l0 103 55 37 c75 52
184 169 233 251 22 38 53 108 69 156 l28 89 64 0 c95 0 139 17 196 75 102 101
102 229 0 330 -55 56 -102 75 -184 75 -28 0 -51 2 -51 4 0 2 21 53 46 113 57
131 72 185 80 283 13 173 -60 364 -191 495 -67 67 -89 81 -224 147 l-150 73
-33 70 c-30 63 -33 79 -33 160 0 83 2 95 34 153 41 75 86 116 161 149 100 44
114 52 210 123 99 73 206 122 302 140 70 12 200 5 278 -15z m-1118 -880 c88
-23 367 -155 423 -200 171 -140 230 -378 141 -571 l-23 -49 -46 92 c-70 138
-92 143 -222 47 -167 -123 -251 -159 -399 -170 -168 -13 -306 33 -474 157
-150 111 -169 108 -242 -40 -24 -50 -47 -91 -50 -91 -4 0 -27 42 -51 93 -42
88 -44 96 -44 182 0 83 2 95 34 153 40 74 84 115 161 151 46 22 69 26 140 26
74 0 94 -4 150 -31 66 -31 115 -71 161 -133 l25 -34 62 42 c34 23 62 46 62 50
0 15 -75 106 -119 143 -47 40 -150 98 -175 98 -42 0 -6 28 77 61 120 49 280
58 409 24z m-612 -880 c144 -95 261 -129 440 -129 179 0 296 34 440 129 46 30
86 55 90 55 3 0 30 -49 59 -108 l53 -108 -4 -209 c-4 -196 -6 -215 -30 -283
-37 -104 -83 -176 -158 -252 -76 -75 -148 -121 -252 -158 -63 -22 -89 -26
-193 -27 -97 0 -133 4 -190 22 -163 52 -309 175 -383 323 -59 118 -72 189 -72
407 l0 183 52 105 c29 58 55 105 58 105 4 0 44 -25 90 -55z m-360 -375 l0 -80
-55 0 c-67 0 -105 29 -105 80 0 51 38 80 105 80 l55 0 0 -80z m1735 55 c16
-15 25 -36 25 -55 0 -51 -38 -80 -105 -80 l-55 0 0 80 0 80 55 0 c46 0 60 -4
80 -25z m-935 -928 c90 0 153 5 188 15 l52 15 0 -81 0 -81 -120 -120 -120
-120 -120 120 -120 120 0 81 0 81 53 -15 c34 -10 97 -15 187 -15z m-190 -412
c140 -138 160 -155 190 -155 30 0 50 17 190 155 l156 155 594 -165 c631 -175
648 -182 697 -254 13 -19 27 -50 33 -70 6 -21 10 -203 10 -448 l0 -413 -240 0
-240 0 0 320 0 320 -80 0 -80 0 0 -320 0 -320 -1040 0 -1040 0 0 320 0 320
-80 0 -80 0 0 -320 0 -320 -240 0 -240 0 0 413 c0 245 4 427 10 448 6 20 20
51 33 70 48 72 67 79 692 253 325 91 592 165 595 165 2 1 74 -69 160 -154z"/>
</g>
</svg>
